<?xml version="1.0" encoding="utf-8" standalone="no"?>
<!DOCTYPE svg PUBLIC "-//W3C//DTD SVG 1.1//EN"
  "http://www.w3.org/Graphics/SVG/1.1/DTD/svg11.dtd">
<svg xmlns:xlink="http://www.w3.org/1999/xlink" width="864pt" height="432pt" viewBox="0 0 864 432" xmlns="http://www.w3.org/2000/svg" version="1.1">
 <metadata>
  <rdf:RDF xmlns:dc="http://purl.org/dc/elements/1.1/" xmlns:cc="http://creativecommons.org/ns#" xmlns:rdf="http://www.w3.org/1999/02/22-rdf-syntax-ns#">
   <cc:Work>
    <dc:type rdf:resource="http://purl.org/dc/dcmitype/StillImage"/>
    <dc:date>2022-02-28T18:19:12.325484</dc:date>
    <dc:format>image/svg+xml</dc:format>
    <dc:creator>
     <cc:Agent>
      <dc:title>Matplotlib v3.5.1, https://matplotlib.org/</dc:title>
     </cc:Agent>
    </dc:creator>
   </cc:Work>
  </rdf:RDF>
 </metadata>
 <defs>
  <style type="text/css">*{stroke-linejoin: round; stroke-linecap: butt}</style>
 </defs>
 <g id="figure_1">
  <g id="patch_1">
   <path d="M 0 432 
L 864 432 
L 864 0 
L 0 0 
z
" style="fill: #ffffff"/>
  </g>
  <g id="axes_1">
   <g id="patch_2">
    <path d="M 44.845313 305.056228 
L 853.2 305.056228 
L 853.2 25.425 
L 44.845313 25.425 
z
" style="fill: #ffffff"/>
   </g>
   <g id="matplotlib.axis_1">
    <g id="xtick_1">
     <g id="line2d_1">
      <path d="M 100.362705 305.056228 
L 100.362705 25.425 
" clip-path="url(#p5f5f087ddc)" style="fill: none; stroke: #b0b0b0; stroke-width: 0.8; stroke-linecap: square"/>
     </g>
     <g id="line2d_2">
      <defs>
       <path id="mef229004cc" d="M 0 0 
L 0 3.5 
" style="stroke: #000000; stroke-width: 0.8"/>
      </defs>
      <g>
       <use xlink:href="#mef229004cc" x="100.362705" y="305.056228" style="stroke: #000000; stroke-width: 0.8"/>
      </g>
     </g>
     <g id="text_1">
      <!-- ('flexible_generator', 'pv_a4') -->
      <g transform="translate(60.243474 316.51748)rotate(-320)scale(0.08 -0.08)">
       <defs>
        <path id="ArialMT-28" d="M 1497 -1347 
Q 1031 -759 709 28 
Q 388 816 388 1659 
Q 388 2403 628 3084 
Q 909 3875 1497 4659 
L 1900 4659 
Q 1522 4009 1400 3731 
Q 1209 3300 1100 2831 
Q 966 2247 966 1656 
Q 966 153 1900 -1347 
L 1497 -1347 
z
" transform="scale(0.015625)"/>
        <path id="ArialMT-27" d="M 425 2959 
L 281 3816 
L 281 4581 
L 922 4581 
L 922 3816 
L 772 2959 
L 425 2959 
z
" transform="scale(0.015625)"/>
        <path id="ArialMT-66" d="M 556 0 
L 556 2881 
L 59 2881 
L 59 3319 
L 556 3319 
L 556 3672 
Q 556 4006 616 4169 
Q 697 4388 901 4523 
Q 1106 4659 1475 4659 
Q 1713 4659 2000 4603 
L 1916 4113 
Q 1741 4144 1584 4144 
Q 1328 4144 1222 4034 
Q 1116 3925 1116 3625 
L 1116 3319 
L 1763 3319 
L 1763 2881 
L 1116 2881 
L 1116 0 
L 556 0 
z
" transform="scale(0.015625)"/>
        <path id="ArialMT-6c" d="M 409 0 
L 409 4581 
L 972 4581 
L 972 0 
L 409 0 
z
" transform="scale(0.015625)"/>
        <path id="ArialMT-65" d="M 2694 1069 
L 3275 997 
Q 3138 488 2766 206 
Q 2394 -75 1816 -75 
Q 1088 -75 661 373 
Q 234 822 234 1631 
Q 234 2469 665 2931 
Q 1097 3394 1784 3394 
Q 2450 3394 2872 2941 
Q 3294 2488 3294 1666 
Q 3294 1616 3291 1516 
L 816 1516 
Q 847 969 1125 678 
Q 1403 388 1819 388 
Q 2128 388 2347 550 
Q 2566 713 2694 1069 
z
M 847 1978 
L 2700 1978 
Q 2663 2397 2488 2606 
Q 2219 2931 1791 2931 
Q 1403 2931 1139 2672 
Q 875 2413 847 1978 
z
" transform="scale(0.015625)"/>
        <path id="ArialMT-78" d="M 47 0 
L 1259 1725 
L 138 3319 
L 841 3319 
L 1350 2541 
Q 1494 2319 1581 2169 
Q 1719 2375 1834 2534 
L 2394 3319 
L 3066 3319 
L 1919 1756 
L 3153 0 
L 2463 0 
L 1781 1031 
L 1600 1309 
L 728 0 
L 47 0 
z
" transform="scale(0.015625)"/>
        <path id="ArialMT-69" d="M 425 3934 
L 425 4581 
L 988 4581 
L 988 3934 
L 425 3934 
z
M 425 0 
L 425 3319 
L 988 3319 
L 988 0 
L 425 0 
z
" transform="scale(0.015625)"/>
        <path id="ArialMT-62" d="M 941 0 
L 419 0 
L 419 4581 
L 981 4581 
L 981 2947 
Q 1338 3394 1891 3394 
Q 2197 3394 2470 3270 
Q 2744 3147 2920 2923 
Q 3097 2700 3197 2384 
Q 3297 2069 3297 1709 
Q 3297 856 2875 390 
Q 2453 -75 1863 -75 
Q 1275 -75 941 416 
L 941 0 
z
M 934 1684 
Q 934 1088 1097 822 
Q 1363 388 1816 388 
Q 2184 388 2453 708 
Q 2722 1028 2722 1663 
Q 2722 2313 2464 2622 
Q 2206 2931 1841 2931 
Q 1472 2931 1203 2611 
Q 934 2291 934 1684 
z
" transform="scale(0.015625)"/>
        <path id="ArialMT-5f" d="M -97 -1272 
L -97 -866 
L 3631 -866 
L 3631 -1272 
L -97 -1272 
z
" transform="scale(0.015625)"/>
        <path id="ArialMT-67" d="M 319 -275 
L 866 -356 
Q 900 -609 1056 -725 
Q 1266 -881 1628 -881 
Q 2019 -881 2231 -725 
Q 2444 -569 2519 -288 
Q 2563 -116 2559 434 
Q 2191 0 1641 0 
Q 956 0 581 494 
Q 206 988 206 1678 
Q 206 2153 378 2554 
Q 550 2956 876 3175 
Q 1203 3394 1644 3394 
Q 2231 3394 2613 2919 
L 2613 3319 
L 3131 3319 
L 3131 450 
Q 3131 -325 2973 -648 
Q 2816 -972 2473 -1159 
Q 2131 -1347 1631 -1347 
Q 1038 -1347 672 -1080 
Q 306 -813 319 -275 
z
M 784 1719 
Q 784 1066 1043 766 
Q 1303 466 1694 466 
Q 2081 466 2343 764 
Q 2606 1063 2606 1700 
Q 2606 2309 2336 2618 
Q 2066 2928 1684 2928 
Q 1309 2928 1046 2623 
Q 784 2319 784 1719 
z
" transform="scale(0.015625)"/>
        <path id="ArialMT-6e" d="M 422 0 
L 422 3319 
L 928 3319 
L 928 2847 
Q 1294 3394 1984 3394 
Q 2284 3394 2536 3286 
Q 2788 3178 2913 3003 
Q 3038 2828 3088 2588 
Q 3119 2431 3119 2041 
L 3119 0 
L 2556 0 
L 2556 2019 
Q 2556 2363 2490 2533 
Q 2425 2703 2258 2804 
Q 2091 2906 1866 2906 
Q 1506 2906 1245 2678 
Q 984 2450 984 1813 
L 984 0 
L 422 0 
z
" transform="scale(0.015625)"/>
        <path id="ArialMT-72" d="M 416 0 
L 416 3319 
L 922 3319 
L 922 2816 
Q 1116 3169 1280 3281 
Q 1444 3394 1641 3394 
Q 1925 3394 2219 3213 
L 2025 2691 
Q 1819 2813 1613 2813 
Q 1428 2813 1281 2702 
Q 1134 2591 1072 2394 
Q 978 2094 978 1738 
L 978 0 
L 416 0 
z
" transform="scale(0.015625)"/>
        <path id="ArialMT-61" d="M 2588 409 
Q 2275 144 1986 34 
Q 1697 -75 1366 -75 
Q 819 -75 525 192 
Q 231 459 231 875 
Q 231 1119 342 1320 
Q 453 1522 633 1644 
Q 813 1766 1038 1828 
Q 1203 1872 1538 1913 
Q 2219 1994 2541 2106 
Q 2544 2222 2544 2253 
Q 2544 2597 2384 2738 
Q 2169 2928 1744 2928 
Q 1347 2928 1158 2789 
Q 969 2650 878 2297 
L 328 2372 
Q 403 2725 575 2942 
Q 747 3159 1072 3276 
Q 1397 3394 1825 3394 
Q 2250 3394 2515 3294 
Q 2781 3194 2906 3042 
Q 3031 2891 3081 2659 
Q 3109 2516 3109 2141 
L 3109 1391 
Q 3109 606 3145 398 
Q 3181 191 3288 0 
L 2700 0 
Q 2613 175 2588 409 
z
M 2541 1666 
Q 2234 1541 1622 1453 
Q 1275 1403 1131 1340 
Q 988 1278 909 1158 
Q 831 1038 831 891 
Q 831 666 1001 516 
Q 1172 366 1500 366 
Q 1825 366 2078 508 
Q 2331 650 2450 897 
Q 2541 1088 2541 1459 
L 2541 1666 
z
" transform="scale(0.015625)"/>
        <path id="ArialMT-74" d="M 1650 503 
L 1731 6 
Q 1494 -44 1306 -44 
Q 1000 -44 831 53 
Q 663 150 594 308 
Q 525 466 525 972 
L 525 2881 
L 113 2881 
L 113 3319 
L 525 3319 
L 525 4141 
L 1084 4478 
L 1084 3319 
L 1650 3319 
L 1650 2881 
L 1084 2881 
L 1084 941 
Q 1084 700 1114 631 
Q 1144 563 1211 522 
Q 1278 481 1403 481 
Q 1497 481 1650 503 
z
" transform="scale(0.015625)"/>
        <path id="ArialMT-6f" d="M 213 1659 
Q 213 2581 725 3025 
Q 1153 3394 1769 3394 
Q 2453 3394 2887 2945 
Q 3322 2497 3322 1706 
Q 3322 1066 3130 698 
Q 2938 331 2570 128 
Q 2203 -75 1769 -75 
Q 1072 -75 642 372 
Q 213 819 213 1659 
z
M 791 1659 
Q 791 1022 1069 705 
Q 1347 388 1769 388 
Q 2188 388 2466 706 
Q 2744 1025 2744 1678 
Q 2744 2294 2464 2611 
Q 2184 2928 1769 2928 
Q 1347 2928 1069 2612 
Q 791 2297 791 1659 
z
" transform="scale(0.015625)"/>
        <path id="ArialMT-2c" d="M 569 0 
L 569 641 
L 1209 641 
L 1209 0 
Q 1209 -353 1084 -570 
Q 959 -788 688 -906 
L 531 -666 
Q 709 -588 793 -436 
Q 878 -284 888 0 
L 569 0 
z
" transform="scale(0.015625)"/>
        <path id="ArialMT-20" transform="scale(0.015625)"/>
        <path id="ArialMT-70" d="M 422 -1272 
L 422 3319 
L 934 3319 
L 934 2888 
Q 1116 3141 1344 3267 
Q 1572 3394 1897 3394 
Q 2322 3394 2647 3175 
Q 2972 2956 3137 2557 
Q 3303 2159 3303 1684 
Q 3303 1175 3120 767 
Q 2938 359 2589 142 
Q 2241 -75 1856 -75 
Q 1575 -75 1351 44 
Q 1128 163 984 344 
L 984 -1272 
L 422 -1272 
z
M 931 1641 
Q 931 1000 1190 694 
Q 1450 388 1819 388 
Q 2194 388 2461 705 
Q 2728 1022 2728 1688 
Q 2728 2322 2467 2637 
Q 2206 2953 1844 2953 
Q 1484 2953 1207 2617 
Q 931 2281 931 1641 
z
" transform="scale(0.015625)"/>
        <path id="ArialMT-76" d="M 1344 0 
L 81 3319 
L 675 3319 
L 1388 1331 
Q 1503 1009 1600 663 
Q 1675 925 1809 1294 
L 2547 3319 
L 3125 3319 
L 1869 0 
L 1344 0 
z
" transform="scale(0.015625)"/>
        <path id="ArialMT-34" d="M 2069 0 
L 2069 1097 
L 81 1097 
L 81 1613 
L 2172 4581 
L 2631 4581 
L 2631 1613 
L 3250 1613 
L 3250 1097 
L 2631 1097 
L 2631 0 
L 2069 0 
z
M 2069 1613 
L 2069 3678 
L 634 1613 
L 2069 1613 
z
" transform="scale(0.015625)"/>
        <path id="ArialMT-29" d="M 791 -1347 
L 388 -1347 
Q 1322 153 1322 1656 
Q 1322 2244 1188 2822 
Q 1081 3291 891 3722 
Q 769 4003 388 4659 
L 791 4659 
Q 1378 3875 1659 3084 
Q 1900 2403 1900 1659 
Q 1900 816 1576 28 
Q 1253 -759 791 -1347 
z
" transform="scale(0.015625)"/>
       </defs>
       <use xlink:href="#ArialMT-28"/>
       <use xlink:href="#ArialMT-27" x="33.300781"/>
       <use xlink:href="#ArialMT-66" x="52.392578"/>
       <use xlink:href="#ArialMT-6c" x="80.175781"/>
       <use xlink:href="#ArialMT-65" x="102.392578"/>
       <use xlink:href="#ArialMT-78" x="158.007812"/>
       <use xlink:href="#ArialMT-69" x="208.007812"/>
       <use xlink:href="#ArialMT-62" x="230.224609"/>
       <use xlink:href="#ArialMT-6c" x="285.839844"/>
       <use xlink:href="#ArialMT-65" x="308.056641"/>
       <use xlink:href="#ArialMT-5f" x="363.671875"/>
       <use xlink:href="#ArialMT-67" x="419.287109"/>
       <use xlink:href="#ArialMT-65" x="474.902344"/>
       <use xlink:href="#ArialMT-6e" x="530.517578"/>
       <use xlink:href="#ArialMT-65" x="586.132812"/>
       <use xlink:href="#ArialMT-72" x="641.748047"/>
       <use xlink:href="#ArialMT-61" x="675.048828"/>
       <use xlink:href="#ArialMT-74" x="730.664062"/>
       <use xlink:href="#ArialMT-6f" x="758.447266"/>
       <use xlink:href="#ArialMT-72" x="814.0625"/>
       <use xlink:href="#ArialMT-27" x="847.363281"/>
       <use xlink:href="#ArialMT-2c" x="866.455078"/>
       <use xlink:href="#ArialMT-20" x="894.238281"/>
       <use xlink:href="#ArialMT-27" x="922.021484"/>
       <use xlink:href="#ArialMT-70" x="941.113281"/>
       <use xlink:href="#ArialMT-76" x="996.728516"/>
       <use xlink:href="#ArialMT-5f" x="1046.728516"/>
       <use xlink:href="#ArialMT-61" x="1102.34375"/>
       <use xlink:href="#ArialMT-34" x="1157.958984"/>
       <use xlink:href="#ArialMT-27" x="1213.574219"/>
       <use xlink:href="#ArialMT-29" x="1232.666016"/>
      </g>
     </g>
    </g>
    <g id="xtick_2">
     <g id="line2d_3">
      <path d="M 154.002697 305.056228 
L 154.002697 25.425 
" clip-path="url(#p5f5f087ddc)" style="fill: none; stroke: #b0b0b0; stroke-width: 0.8; stroke-linecap: square"/>
     </g>
     <g id="line2d_4">
      <g>
       <use xlink:href="#mef229004cc" x="154.002697" y="305.056228" style="stroke: #000000; stroke-width: 0.8"/>
      </g>
     </g>
     <g id="text_2">
      <!-- ('flexible_generator', 'pv_b2') -->
      <g transform="translate(113.883467 316.51748)rotate(-320)scale(0.08 -0.08)">
       <defs>
        <path id="ArialMT-32" d="M 3222 541 
L 3222 0 
L 194 0 
Q 188 203 259 391 
Q 375 700 629 1000 
Q 884 1300 1366 1694 
Q 2113 2306 2375 2664 
Q 2638 3022 2638 3341 
Q 2638 3675 2398 3904 
Q 2159 4134 1775 4134 
Q 1369 4134 1125 3890 
Q 881 3647 878 3216 
L 300 3275 
Q 359 3922 746 4261 
Q 1134 4600 1788 4600 
Q 2447 4600 2831 4234 
Q 3216 3869 3216 3328 
Q 3216 3053 3103 2787 
Q 2991 2522 2730 2228 
Q 2469 1934 1863 1422 
Q 1356 997 1212 845 
Q 1069 694 975 541 
L 3222 541 
z
" transform="scale(0.015625)"/>
       </defs>
       <use xlink:href="#ArialMT-28"/>
       <use xlink:href="#ArialMT-27" x="33.300781"/>
       <use xlink:href="#ArialMT-66" x="52.392578"/>
       <use xlink:href="#ArialMT-6c" x="80.175781"/>
       <use xlink:href="#ArialMT-65" x="102.392578"/>
       <use xlink:href="#ArialMT-78" x="158.007812"/>
       <use xlink:href="#ArialMT-69" x="208.007812"/>
       <use xlink:href="#ArialMT-62" x="230.224609"/>
       <use xlink:href="#ArialMT-6c" x="285.839844"/>
       <use xlink:href="#ArialMT-65" x="308.056641"/>
       <use xlink:href="#ArialMT-5f" x="363.671875"/>
       <use xlink:href="#ArialMT-67" x="419.287109"/>
       <use xlink:href="#ArialMT-65" x="474.902344"/>
       <use xlink:href="#ArialMT-6e" x="530.517578"/>
       <use xlink:href="#ArialMT-65" x="586.132812"/>
       <use xlink:href="#ArialMT-72" x="641.748047"/>
       <use xlink:href="#ArialMT-61" x="675.048828"/>
       <use xlink:href="#ArialMT-74" x="730.664062"/>
       <use xlink:href="#ArialMT-6f" x="758.447266"/>
       <use xlink:href="#ArialMT-72" x="814.0625"/>
       <use xlink:href="#ArialMT-27" x="847.363281"/>
       <use xlink:href="#ArialMT-2c" x="866.455078"/>
       <use xlink:href="#ArialMT-20" x="894.238281"/>
       <use xlink:href="#ArialMT-27" x="922.021484"/>
       <use xlink:href="#ArialMT-70" x="941.113281"/>
       <use xlink:href="#ArialMT-76" x="996.728516"/>
       <use xlink:href="#ArialMT-5f" x="1046.728516"/>
       <use xlink:href="#ArialMT-62" x="1102.34375"/>
       <use xlink:href="#ArialMT-32" x="1157.958984"/>
       <use xlink:href="#ArialMT-27" x="1213.574219"/>
       <use xlink:href="#ArialMT-29" x="1232.666016"/>
      </g>
     </g>
    </g>
    <g id="xtick_3">
     <g id="line2d_5">
      <path d="M 207.64269 305.056228 
L 207.64269 25.425 
" clip-path="url(#p5f5f087ddc)" style="fill: none; stroke: #b0b0b0; stroke-width: 0.8; stroke-linecap: square"/>
     </g>
     <g id="line2d_6">
      <g>
       <use xlink:href="#mef229004cc" x="207.64269" y="305.056228" style="stroke: #000000; stroke-width: 0.8"/>
      </g>
     </g>
     <g id="text_3">
      <!-- ('flexible_generator', 'pv_b4') -->
      <g transform="translate(167.523459 316.51748)rotate(-320)scale(0.08 -0.08)">
       <use xlink:href="#ArialMT-28"/>
       <use xlink:href="#ArialMT-27" x="33.300781"/>
       <use xlink:href="#ArialMT-66" x="52.392578"/>
       <use xlink:href="#ArialMT-6c" x="80.175781"/>
       <use xlink:href="#ArialMT-65" x="102.392578"/>
       <use xlink:href="#ArialMT-78" x="158.007812"/>
       <use xlink:href="#ArialMT-69" x="208.007812"/>
       <use xlink:href="#ArialMT-62" x="230.224609"/>
       <use xlink:href="#ArialMT-6c" x="285.839844"/>
       <use xlink:href="#ArialMT-65" x="308.056641"/>
       <use xlink:href="#ArialMT-5f" x="363.671875"/>
       <use xlink:href="#ArialMT-67" x="419.287109"/>
       <use xlink:href="#ArialMT-65" x="474.902344"/>
       <use xlink:href="#ArialMT-6e" x="530.517578"/>
       <use xlink:href="#ArialMT-65" x="586.132812"/>
       <use xlink:href="#ArialMT-72" x="641.748047"/>
       <use xlink:href="#ArialMT-61" x="675.048828"/>
       <use xlink:href="#ArialMT-74" x="730.664062"/>
       <use xlink:href="#ArialMT-6f" x="758.447266"/>
       <use xlink:href="#ArialMT-72" x="814.0625"/>
       <use xlink:href="#ArialMT-27" x="847.363281"/>
       <use xlink:href="#ArialMT-2c" x="866.455078"/>
       <use xlink:href="#ArialMT-20" x="894.238281"/>
       <use xlink:href="#ArialMT-27" x="922.021484"/>
       <use xlink:href="#ArialMT-70" x="941.113281"/>
       <use xlink:href="#ArialMT-76" x="996.728516"/>
       <use xlink:href="#ArialMT-5f" x="1046.728516"/>
       <use xlink:href="#ArialMT-62" x="1102.34375"/>
       <use xlink:href="#ArialMT-34" x="1157.958984"/>
       <use xlink:href="#ArialMT-27" x="1213.574219"/>
       <use xlink:href="#ArialMT-29" x="1232.666016"/>
      </g>
     </g>
    </g>
    <g id="xtick_4">
     <g id="line2d_7">
      <path d="M 261.282682 305.056228 
L 261.282682 25.425 
" clip-path="url(#p5f5f087ddc)" style="fill: none; stroke: #b0b0b0; stroke-width: 0.8; stroke-linecap: square"/>
     </g>
     <g id="line2d_8">
      <g>
       <use xlink:href="#mef229004cc" x="261.282682" y="305.056228" style="stroke: #000000; stroke-width: 0.8"/>
      </g>
     </g>
     <g id="text_4">
      <!-- ('flexible_generator', 'pv_b8') -->
      <g transform="translate(221.163452 316.51748)rotate(-320)scale(0.08 -0.08)">
       <defs>
        <path id="ArialMT-38" d="M 1131 2484 
Q 781 2613 612 2850 
Q 444 3088 444 3419 
Q 444 3919 803 4259 
Q 1163 4600 1759 4600 
Q 2359 4600 2725 4251 
Q 3091 3903 3091 3403 
Q 3091 3084 2923 2848 
Q 2756 2613 2416 2484 
Q 2838 2347 3058 2040 
Q 3278 1734 3278 1309 
Q 3278 722 2862 322 
Q 2447 -78 1769 -78 
Q 1091 -78 675 323 
Q 259 725 259 1325 
Q 259 1772 486 2073 
Q 713 2375 1131 2484 
z
M 1019 3438 
Q 1019 3113 1228 2906 
Q 1438 2700 1772 2700 
Q 2097 2700 2305 2904 
Q 2513 3109 2513 3406 
Q 2513 3716 2298 3927 
Q 2084 4138 1766 4138 
Q 1444 4138 1231 3931 
Q 1019 3725 1019 3438 
z
M 838 1322 
Q 838 1081 952 856 
Q 1066 631 1291 507 
Q 1516 384 1775 384 
Q 2178 384 2440 643 
Q 2703 903 2703 1303 
Q 2703 1709 2433 1975 
Q 2163 2241 1756 2241 
Q 1359 2241 1098 1978 
Q 838 1716 838 1322 
z
" transform="scale(0.015625)"/>
       </defs>
       <use xlink:href="#ArialMT-28"/>
       <use xlink:href="#ArialMT-27" x="33.300781"/>
       <use xlink:href="#ArialMT-66" x="52.392578"/>
       <use xlink:href="#ArialMT-6c" x="80.175781"/>
       <use xlink:href="#ArialMT-65" x="102.392578"/>
       <use xlink:href="#ArialMT-78" x="158.007812"/>
       <use xlink:href="#ArialMT-69" x="208.007812"/>
       <use xlink:href="#ArialMT-62" x="230.224609"/>
       <use xlink:href="#ArialMT-6c" x="285.839844"/>
       <use xlink:href="#ArialMT-65" x="308.056641"/>
       <use xlink:href="#ArialMT-5f" x="363.671875"/>
       <use xlink:href="#ArialMT-67" x="419.287109"/>
       <use xlink:href="#ArialMT-65" x="474.902344"/>
       <use xlink:href="#ArialMT-6e" x="530.517578"/>
       <use xlink:href="#ArialMT-65" x="586.132812"/>
       <use xlink:href="#ArialMT-72" x="641.748047"/>
       <use xlink:href="#ArialMT-61" x="675.048828"/>
       <use xlink:href="#ArialMT-74" x="730.664062"/>
       <use xlink:href="#ArialMT-6f" x="758.447266"/>
       <use xlink:href="#ArialMT-72" x="814.0625"/>
       <use xlink:href="#ArialMT-27" x="847.363281"/>
       <use xlink:href="#ArialMT-2c" x="866.455078"/>
       <use xlink:href="#ArialMT-20" x="894.238281"/>
       <use xlink:href="#ArialMT-27" x="922.021484"/>
       <use xlink:href="#ArialMT-70" x="941.113281"/>
       <use xlink:href="#ArialMT-76" x="996.728516"/>
       <use xlink:href="#ArialMT-5f" x="1046.728516"/>
       <use xlink:href="#ArialMT-62" x="1102.34375"/>
       <use xlink:href="#ArialMT-38" x="1157.958984"/>
       <use xlink:href="#ArialMT-27" x="1213.574219"/>
       <use xlink:href="#ArialMT-29" x="1232.666016"/>
      </g>
     </g>
    </g>
    <g id="xtick_5">
     <g id="line2d_9">
      <path d="M 314.922675 305.056228 
L 314.922675 25.425 
" clip-path="url(#p5f5f087ddc)" style="fill: none; stroke: #b0b0b0; stroke-width: 0.8; stroke-linecap: square"/>
     </g>
     <g id="line2d_10">
      <g>
       <use xlink:href="#mef229004cc" x="314.922675" y="305.056228" style="stroke: #000000; stroke-width: 0.8"/>
      </g>
     </g>
     <g id="text_5">
      <!-- ('flexible_generator', 'pv_b10_strategic') -->
      <g transform="translate(259.815785 316.51748)rotate(-320)scale(0.08 -0.08)">
       <defs>
        <path id="ArialMT-31" d="M 2384 0 
L 1822 0 
L 1822 3584 
Q 1619 3391 1289 3197 
Q 959 3003 697 2906 
L 697 3450 
Q 1169 3672 1522 3987 
Q 1875 4303 2022 4600 
L 2384 4600 
L 2384 0 
z
" transform="scale(0.015625)"/>
        <path id="ArialMT-30" d="M 266 2259 
Q 266 3072 433 3567 
Q 600 4063 929 4331 
Q 1259 4600 1759 4600 
Q 2128 4600 2406 4451 
Q 2684 4303 2865 4023 
Q 3047 3744 3150 3342 
Q 3253 2941 3253 2259 
Q 3253 1453 3087 958 
Q 2922 463 2592 192 
Q 2263 -78 1759 -78 
Q 1097 -78 719 397 
Q 266 969 266 2259 
z
M 844 2259 
Q 844 1131 1108 757 
Q 1372 384 1759 384 
Q 2147 384 2411 759 
Q 2675 1134 2675 2259 
Q 2675 3391 2411 3762 
Q 2147 4134 1753 4134 
Q 1366 4134 1134 3806 
Q 844 3388 844 2259 
z
" transform="scale(0.015625)"/>
        <path id="ArialMT-73" d="M 197 991 
L 753 1078 
Q 800 744 1014 566 
Q 1228 388 1613 388 
Q 2000 388 2187 545 
Q 2375 703 2375 916 
Q 2375 1106 2209 1216 
Q 2094 1291 1634 1406 
Q 1016 1563 777 1677 
Q 538 1791 414 1992 
Q 291 2194 291 2438 
Q 291 2659 392 2848 
Q 494 3038 669 3163 
Q 800 3259 1026 3326 
Q 1253 3394 1513 3394 
Q 1903 3394 2198 3281 
Q 2494 3169 2634 2976 
Q 2775 2784 2828 2463 
L 2278 2388 
Q 2241 2644 2061 2787 
Q 1881 2931 1553 2931 
Q 1166 2931 1000 2803 
Q 834 2675 834 2503 
Q 834 2394 903 2306 
Q 972 2216 1119 2156 
Q 1203 2125 1616 2013 
Q 2213 1853 2448 1751 
Q 2684 1650 2818 1456 
Q 2953 1263 2953 975 
Q 2953 694 2789 445 
Q 2625 197 2315 61 
Q 2006 -75 1616 -75 
Q 969 -75 630 194 
Q 291 463 197 991 
z
" transform="scale(0.015625)"/>
        <path id="ArialMT-63" d="M 2588 1216 
L 3141 1144 
Q 3050 572 2676 248 
Q 2303 -75 1759 -75 
Q 1078 -75 664 370 
Q 250 816 250 1647 
Q 250 2184 428 2587 
Q 606 2991 970 3192 
Q 1334 3394 1763 3394 
Q 2303 3394 2647 3120 
Q 2991 2847 3088 2344 
L 2541 2259 
Q 2463 2594 2264 2762 
Q 2066 2931 1784 2931 
Q 1359 2931 1093 2626 
Q 828 2322 828 1663 
Q 828 994 1084 691 
Q 1341 388 1753 388 
Q 2084 388 2306 591 
Q 2528 794 2588 1216 
z
" transform="scale(0.015625)"/>
       </defs>
       <use xlink:href="#ArialMT-28"/>
       <use xlink:href="#ArialMT-27" x="33.300781"/>
       <use xlink:href="#ArialMT-66" x="52.392578"/>
       <use xlink:href="#ArialMT-6c" x="80.175781"/>
       <use xlink:href="#ArialMT-65" x="102.392578"/>
       <use xlink:href="#ArialMT-78" x="158.007812"/>
       <use xlink:href="#ArialMT-69" x="208.007812"/>
       <use xlink:href="#ArialMT-62" x="230.224609"/>
       <use xlink:href="#ArialMT-6c" x="285.839844"/>
       <use xlink:href="#ArialMT-65" x="308.056641"/>
       <use xlink:href="#ArialMT-5f" x="363.671875"/>
       <use xlink:href="#ArialMT-67" x="419.287109"/>
       <use xlink:href="#ArialMT-65" x="474.902344"/>
       <use xlink:href="#ArialMT-6e" x="530.517578"/>
       <use xlink:href="#ArialMT-65" x="586.132812"/>
       <use xlink:href="#ArialMT-72" x="641.748047"/>
       <use xlink:href="#ArialMT-61" x="675.048828"/>
       <use xlink:href="#ArialMT-74" x="730.664062"/>
       <use xlink:href="#ArialMT-6f" x="758.447266"/>
       <use xlink:href="#ArialMT-72" x="814.0625"/>
       <use xlink:href="#ArialMT-27" x="847.363281"/>
       <use xlink:href="#ArialMT-2c" x="866.455078"/>
       <use xlink:href="#ArialMT-20" x="894.238281"/>
       <use xlink:href="#ArialMT-27" x="922.021484"/>
       <use xlink:href="#ArialMT-70" x="941.113281"/>
       <use xlink:href="#ArialMT-76" x="996.728516"/>
       <use xlink:href="#ArialMT-5f" x="1046.728516"/>
       <use xlink:href="#ArialMT-62" x="1102.34375"/>
       <use xlink:href="#ArialMT-31" x="1157.958984"/>
       <use xlink:href="#ArialMT-30" x="1213.574219"/>
       <use xlink:href="#ArialMT-5f" x="1269.189453"/>
       <use xlink:href="#ArialMT-73" x="1324.804688"/>
       <use xlink:href="#ArialMT-74" x="1374.804688"/>
       <use xlink:href="#ArialMT-72" x="1402.587891"/>
       <use xlink:href="#ArialMT-61" x="1435.888672"/>
       <use xlink:href="#ArialMT-74" x="1491.503906"/>
       <use xlink:href="#ArialMT-65" x="1519.287109"/>
       <use xlink:href="#ArialMT-67" x="1574.902344"/>
       <use xlink:href="#ArialMT-69" x="1630.517578"/>
       <use xlink:href="#ArialMT-63" x="1652.734375"/>
       <use xlink:href="#ArialMT-27" x="1702.734375"/>
       <use xlink:href="#ArialMT-29" x="1721.826172"/>
      </g>
     </g>
    </g>
    <g id="xtick_6">
     <g id="line2d_11">
      <path d="M 368.562667 305.056228 
L 368.562667 25.425 
" clip-path="url(#p5f5f087ddc)" style="fill: none; stroke: #b0b0b0; stroke-width: 0.8; stroke-linecap: square"/>
     </g>
     <g id="line2d_12">
      <g>
       <use xlink:href="#mef229004cc" x="368.562667" y="305.056228" style="stroke: #000000; stroke-width: 0.8"/>
      </g>
     </g>
     <g id="text_6">
      <!-- ('flexible_load', 'load_a1') -->
      <g transform="translate(333.209669 316.51748)rotate(-320)scale(0.08 -0.08)">
       <defs>
        <path id="ArialMT-64" d="M 2575 0 
L 2575 419 
Q 2259 -75 1647 -75 
Q 1250 -75 917 144 
Q 584 363 401 755 
Q 219 1147 219 1656 
Q 219 2153 384 2558 
Q 550 2963 881 3178 
Q 1213 3394 1622 3394 
Q 1922 3394 2156 3267 
Q 2391 3141 2538 2938 
L 2538 4581 
L 3097 4581 
L 3097 0 
L 2575 0 
z
M 797 1656 
Q 797 1019 1065 703 
Q 1334 388 1700 388 
Q 2069 388 2326 689 
Q 2584 991 2584 1609 
Q 2584 2291 2321 2609 
Q 2059 2928 1675 2928 
Q 1300 2928 1048 2622 
Q 797 2316 797 1656 
z
" transform="scale(0.015625)"/>
       </defs>
       <use xlink:href="#ArialMT-28"/>
       <use xlink:href="#ArialMT-27" x="33.300781"/>
       <use xlink:href="#ArialMT-66" x="52.392578"/>
       <use xlink:href="#ArialMT-6c" x="80.175781"/>
       <use xlink:href="#ArialMT-65" x="102.392578"/>
       <use xlink:href="#ArialMT-78" x="158.007812"/>
       <use xlink:href="#ArialMT-69" x="208.007812"/>
       <use xlink:href="#ArialMT-62" x="230.224609"/>
       <use xlink:href="#ArialMT-6c" x="285.839844"/>
       <use xlink:href="#ArialMT-65" x="308.056641"/>
       <use xlink:href="#ArialMT-5f" x="363.671875"/>
       <use xlink:href="#ArialMT-6c" x="419.287109"/>
       <use xlink:href="#ArialMT-6f" x="441.503906"/>
       <use xlink:href="#ArialMT-61" x="497.119141"/>
       <use xlink:href="#ArialMT-64" x="552.734375"/>
       <use xlink:href="#ArialMT-27" x="608.349609"/>
       <use xlink:href="#ArialMT-2c" x="627.441406"/>
       <use xlink:href="#ArialMT-20" x="655.224609"/>
       <use xlink:href="#ArialMT-27" x="683.007812"/>
       <use xlink:href="#ArialMT-6c" x="702.099609"/>
       <use xlink:href="#ArialMT-6f" x="724.316406"/>
       <use xlink:href="#ArialMT-61" x="779.931641"/>
       <use xlink:href="#ArialMT-64" x="835.546875"/>
       <use xlink:href="#ArialMT-5f" x="891.162109"/>
       <use xlink:href="#ArialMT-61" x="946.777344"/>
       <use xlink:href="#ArialMT-31" x="1002.392578"/>
       <use xlink:href="#ArialMT-27" x="1058.007812"/>
       <use xlink:href="#ArialMT-29" x="1077.099609"/>
      </g>
     </g>
    </g>
    <g id="xtick_7">
     <g id="line2d_13">
      <path d="M 422.20266 305.056228 
L 422.20266 25.425 
" clip-path="url(#p5f5f087ddc)" style="fill: none; stroke: #b0b0b0; stroke-width: 0.8; stroke-linecap: square"/>
     </g>
     <g id="line2d_14">
      <g>
       <use xlink:href="#mef229004cc" x="422.20266" y="305.056228" style="stroke: #000000; stroke-width: 0.8"/>
      </g>
     </g>
     <g id="text_7">
      <!-- ('flexible_load', 'load_a3') -->
      <g transform="translate(386.849662 316.51748)rotate(-320)scale(0.08 -0.08)">
       <defs>
        <path id="ArialMT-33" d="M 269 1209 
L 831 1284 
Q 928 806 1161 595 
Q 1394 384 1728 384 
Q 2125 384 2398 659 
Q 2672 934 2672 1341 
Q 2672 1728 2419 1979 
Q 2166 2231 1775 2231 
Q 1616 2231 1378 2169 
L 1441 2663 
Q 1497 2656 1531 2656 
Q 1891 2656 2178 2843 
Q 2466 3031 2466 3422 
Q 2466 3731 2256 3934 
Q 2047 4138 1716 4138 
Q 1388 4138 1169 3931 
Q 950 3725 888 3313 
L 325 3413 
Q 428 3978 793 4289 
Q 1159 4600 1703 4600 
Q 2078 4600 2393 4439 
Q 2709 4278 2876 4000 
Q 3044 3722 3044 3409 
Q 3044 3113 2884 2869 
Q 2725 2625 2413 2481 
Q 2819 2388 3044 2092 
Q 3269 1797 3269 1353 
Q 3269 753 2831 336 
Q 2394 -81 1725 -81 
Q 1122 -81 723 278 
Q 325 638 269 1209 
z
" transform="scale(0.015625)"/>
       </defs>
       <use xlink:href="#ArialMT-28"/>
       <use xlink:href="#ArialMT-27" x="33.300781"/>
       <use xlink:href="#ArialMT-66" x="52.392578"/>
       <use xlink:href="#ArialMT-6c" x="80.175781"/>
       <use xlink:href="#ArialMT-65" x="102.392578"/>
       <use xlink:href="#ArialMT-78" x="158.007812"/>
       <use xlink:href="#ArialMT-69" x="208.007812"/>
       <use xlink:href="#ArialMT-62" x="230.224609"/>
       <use xlink:href="#ArialMT-6c" x="285.839844"/>
       <use xlink:href="#ArialMT-65" x="308.056641"/>
       <use xlink:href="#ArialMT-5f" x="363.671875"/>
       <use xlink:href="#ArialMT-6c" x="419.287109"/>
       <use xlink:href="#ArialMT-6f" x="441.503906"/>
       <use xlink:href="#ArialMT-61" x="497.119141"/>
       <use xlink:href="#ArialMT-64" x="552.734375"/>
       <use xlink:href="#ArialMT-27" x="608.349609"/>
       <use xlink:href="#ArialMT-2c" x="627.441406"/>
       <use xlink:href="#ArialMT-20" x="655.224609"/>
       <use xlink:href="#ArialMT-27" x="683.007812"/>
       <use xlink:href="#ArialMT-6c" x="702.099609"/>
       <use xlink:href="#ArialMT-6f" x="724.316406"/>
       <use xlink:href="#ArialMT-61" x="779.931641"/>
       <use xlink:href="#ArialMT-64" x="835.546875"/>
       <use xlink:href="#ArialMT-5f" x="891.162109"/>
       <use xlink:href="#ArialMT-61" x="946.777344"/>
       <use xlink:href="#ArialMT-33" x="1002.392578"/>
       <use xlink:href="#ArialMT-27" x="1058.007812"/>
       <use xlink:href="#ArialMT-29" x="1077.099609"/>
      </g>
     </g>
    </g>
    <g id="xtick_8">
     <g id="line2d_15">
      <path d="M 475.842653 305.056228 
L 475.842653 25.425 
" clip-path="url(#p5f5f087ddc)" style="fill: none; stroke: #b0b0b0; stroke-width: 0.8; stroke-linecap: square"/>
     </g>
     <g id="line2d_16">
      <g>
       <use xlink:href="#mef229004cc" x="475.842653" y="305.056228" style="stroke: #000000; stroke-width: 0.8"/>
      </g>
     </g>
     <g id="text_8">
      <!-- ('flexible_load', 'load_b1') -->
      <g transform="translate(440.489655 316.51748)rotate(-320)scale(0.08 -0.08)">
       <use xlink:href="#ArialMT-28"/>
       <use xlink:href="#ArialMT-27" x="33.300781"/>
       <use xlink:href="#ArialMT-66" x="52.392578"/>
       <use xlink:href="#ArialMT-6c" x="80.175781"/>
       <use xlink:href="#ArialMT-65" x="102.392578"/>
       <use xlink:href="#ArialMT-78" x="158.007812"/>
       <use xlink:href="#ArialMT-69" x="208.007812"/>
       <use xlink:href="#ArialMT-62" x="230.224609"/>
       <use xlink:href="#ArialMT-6c" x="285.839844"/>
       <use xlink:href="#ArialMT-65" x="308.056641"/>
       <use xlink:href="#ArialMT-5f" x="363.671875"/>
       <use xlink:href="#ArialMT-6c" x="419.287109"/>
       <use xlink:href="#ArialMT-6f" x="441.503906"/>
       <use xlink:href="#ArialMT-61" x="497.119141"/>
       <use xlink:href="#ArialMT-64" x="552.734375"/>
       <use xlink:href="#ArialMT-27" x="608.349609"/>
       <use xlink:href="#ArialMT-2c" x="627.441406"/>
       <use xlink:href="#ArialMT-20" x="655.224609"/>
       <use xlink:href="#ArialMT-27" x="683.007812"/>
       <use xlink:href="#ArialMT-6c" x="702.099609"/>
       <use xlink:href="#ArialMT-6f" x="724.316406"/>
       <use xlink:href="#ArialMT-61" x="779.931641"/>
       <use xlink:href="#ArialMT-64" x="835.546875"/>
       <use xlink:href="#ArialMT-5f" x="891.162109"/>
       <use xlink:href="#ArialMT-62" x="946.777344"/>
       <use xlink:href="#ArialMT-31" x="1002.392578"/>
       <use xlink:href="#ArialMT-27" x="1058.007812"/>
       <use xlink:href="#ArialMT-29" x="1077.099609"/>
      </g>
     </g>
    </g>
    <g id="xtick_9">
     <g id="line2d_17">
      <path d="M 529.482645 305.056228 
L 529.482645 25.425 
" clip-path="url(#p5f5f087ddc)" style="fill: none; stroke: #b0b0b0; stroke-width: 0.8; stroke-linecap: square"/>
     </g>
     <g id="line2d_18">
      <g>
       <use xlink:href="#mef229004cc" x="529.482645" y="305.056228" style="stroke: #000000; stroke-width: 0.8"/>
      </g>
     </g>
     <g id="text_9">
      <!-- ('flexible_load', 'load_b2') -->
      <g transform="translate(494.129647 316.51748)rotate(-320)scale(0.08 -0.08)">
       <use xlink:href="#ArialMT-28"/>
       <use xlink:href="#ArialMT-27" x="33.300781"/>
       <use xlink:href="#ArialMT-66" x="52.392578"/>
       <use xlink:href="#ArialMT-6c" x="80.175781"/>
       <use xlink:href="#ArialMT-65" x="102.392578"/>
       <use xlink:href="#ArialMT-78" x="158.007812"/>
       <use xlink:href="#ArialMT-69" x="208.007812"/>
       <use xlink:href="#ArialMT-62" x="230.224609"/>
       <use xlink:href="#ArialMT-6c" x="285.839844"/>
       <use xlink:href="#ArialMT-65" x="308.056641"/>
       <use xlink:href="#ArialMT-5f" x="363.671875"/>
       <use xlink:href="#ArialMT-6c" x="419.287109"/>
       <use xlink:href="#ArialMT-6f" x="441.503906"/>
       <use xlink:href="#ArialMT-61" x="497.119141"/>
       <use xlink:href="#ArialMT-64" x="552.734375"/>
       <use xlink:href="#ArialMT-27" x="608.349609"/>
       <use xlink:href="#ArialMT-2c" x="627.441406"/>
       <use xlink:href="#ArialMT-20" x="655.224609"/>
       <use xlink:href="#ArialMT-27" x="683.007812"/>
       <use xlink:href="#ArialMT-6c" x="702.099609"/>
       <use xlink:href="#ArialMT-6f" x="724.316406"/>
       <use xlink:href="#ArialMT-61" x="779.931641"/>
       <use xlink:href="#ArialMT-64" x="835.546875"/>
       <use xlink:href="#ArialMT-5f" x="891.162109"/>
       <use xlink:href="#ArialMT-62" x="946.777344"/>
       <use xlink:href="#ArialMT-32" x="1002.392578"/>
       <use xlink:href="#ArialMT-27" x="1058.007812"/>
       <use xlink:href="#ArialMT-29" x="1077.099609"/>
      </g>
     </g>
    </g>
    <g id="xtick_10">
     <g id="line2d_19">
      <path d="M 583.122638 305.056228 
L 583.122638 25.425 
" clip-path="url(#p5f5f087ddc)" style="fill: none; stroke: #b0b0b0; stroke-width: 0.8; stroke-linecap: square"/>
     </g>
     <g id="line2d_20">
      <g>
       <use xlink:href="#mef229004cc" x="583.122638" y="305.056228" style="stroke: #000000; stroke-width: 0.8"/>
      </g>
     </g>
     <g id="text_10">
      <!-- ('flexible_load', 'load_b3') -->
      <g transform="translate(547.76964 316.51748)rotate(-320)scale(0.08 -0.08)">
       <use xlink:href="#ArialMT-28"/>
       <use xlink:href="#ArialMT-27" x="33.300781"/>
       <use xlink:href="#ArialMT-66" x="52.392578"/>
       <use xlink:href="#ArialMT-6c" x="80.175781"/>
       <use xlink:href="#ArialMT-65" x="102.392578"/>
       <use xlink:href="#ArialMT-78" x="158.007812"/>
       <use xlink:href="#ArialMT-69" x="208.007812"/>
       <use xlink:href="#ArialMT-62" x="230.224609"/>
       <use xlink:href="#ArialMT-6c" x="285.839844"/>
       <use xlink:href="#ArialMT-65" x="308.056641"/>
       <use xlink:href="#ArialMT-5f" x="363.671875"/>
       <use xlink:href="#ArialMT-6c" x="419.287109"/>
       <use xlink:href="#ArialMT-6f" x="441.503906"/>
       <use xlink:href="#ArialMT-61" x="497.119141"/>
       <use xlink:href="#ArialMT-64" x="552.734375"/>
       <use xlink:href="#ArialMT-27" x="608.349609"/>
       <use xlink:href="#ArialMT-2c" x="627.441406"/>
       <use xlink:href="#ArialMT-20" x="655.224609"/>
       <use xlink:href="#ArialMT-27" x="683.007812"/>
       <use xlink:href="#ArialMT-6c" x="702.099609"/>
       <use xlink:href="#ArialMT-6f" x="724.316406"/>
       <use xlink:href="#ArialMT-61" x="779.931641"/>
       <use xlink:href="#ArialMT-64" x="835.546875"/>
       <use xlink:href="#ArialMT-5f" x="891.162109"/>
       <use xlink:href="#ArialMT-62" x="946.777344"/>
       <use xlink:href="#ArialMT-33" x="1002.392578"/>
       <use xlink:href="#ArialMT-27" x="1058.007812"/>
       <use xlink:href="#ArialMT-29" x="1077.099609"/>
      </g>
     </g>
    </g>
    <g id="xtick_11">
     <g id="line2d_21">
      <path d="M 636.76263 305.056228 
L 636.76263 25.425 
" clip-path="url(#p5f5f087ddc)" style="fill: none; stroke: #b0b0b0; stroke-width: 0.8; stroke-linecap: square"/>
     </g>
     <g id="line2d_22">
      <g>
       <use xlink:href="#mef229004cc" x="636.76263" y="305.056228" style="stroke: #000000; stroke-width: 0.8"/>
      </g>
     </g>
     <g id="text_11">
      <!-- ('flexible_load', 'load_b4') -->
      <g transform="translate(601.409632 316.51748)rotate(-320)scale(0.08 -0.08)">
       <use xlink:href="#ArialMT-28"/>
       <use xlink:href="#ArialMT-27" x="33.300781"/>
       <use xlink:href="#ArialMT-66" x="52.392578"/>
       <use xlink:href="#ArialMT-6c" x="80.175781"/>
       <use xlink:href="#ArialMT-65" x="102.392578"/>
       <use xlink:href="#ArialMT-78" x="158.007812"/>
       <use xlink:href="#ArialMT-69" x="208.007812"/>
       <use xlink:href="#ArialMT-62" x="230.224609"/>
       <use xlink:href="#ArialMT-6c" x="285.839844"/>
       <use xlink:href="#ArialMT-65" x="308.056641"/>
       <use xlink:href="#ArialMT-5f" x="363.671875"/>
       <use xlink:href="#ArialMT-6c" x="419.287109"/>
       <use xlink:href="#ArialMT-6f" x="441.503906"/>
       <use xlink:href="#ArialMT-61" x="497.119141"/>
       <use xlink:href="#ArialMT-64" x="552.734375"/>
       <use xlink:href="#ArialMT-27" x="608.349609"/>
       <use xlink:href="#ArialMT-2c" x="627.441406"/>
       <use xlink:href="#ArialMT-20" x="655.224609"/>
       <use xlink:href="#ArialMT-27" x="683.007812"/>
       <use xlink:href="#ArialMT-6c" x="702.099609"/>
       <use xlink:href="#ArialMT-6f" x="724.316406"/>
       <use xlink:href="#ArialMT-61" x="779.931641"/>
       <use xlink:href="#ArialMT-64" x="835.546875"/>
       <use xlink:href="#ArialMT-5f" x="891.162109"/>
       <use xlink:href="#ArialMT-62" x="946.777344"/>
       <use xlink:href="#ArialMT-34" x="1002.392578"/>
       <use xlink:href="#ArialMT-27" x="1058.007812"/>
       <use xlink:href="#ArialMT-29" x="1077.099609"/>
      </g>
     </g>
    </g>
    <g id="xtick_12">
     <g id="line2d_23">
      <path d="M 690.402623 305.056228 
L 690.402623 25.425 
" clip-path="url(#p5f5f087ddc)" style="fill: none; stroke: #b0b0b0; stroke-width: 0.8; stroke-linecap: square"/>
     </g>
     <g id="line2d_24">
      <g>
       <use xlink:href="#mef229004cc" x="690.402623" y="305.056228" style="stroke: #000000; stroke-width: 0.8"/>
      </g>
     </g>
     <g id="text_12">
      <!-- ('flexible_load', 'load_b5') -->
      <g transform="translate(655.049625 316.51748)rotate(-320)scale(0.08 -0.08)">
       <defs>
        <path id="ArialMT-35" d="M 266 1200 
L 856 1250 
Q 922 819 1161 601 
Q 1400 384 1738 384 
Q 2144 384 2425 690 
Q 2706 997 2706 1503 
Q 2706 1984 2436 2262 
Q 2166 2541 1728 2541 
Q 1456 2541 1237 2417 
Q 1019 2294 894 2097 
L 366 2166 
L 809 4519 
L 3088 4519 
L 3088 3981 
L 1259 3981 
L 1013 2750 
Q 1425 3038 1878 3038 
Q 2478 3038 2890 2622 
Q 3303 2206 3303 1553 
Q 3303 931 2941 478 
Q 2500 -78 1738 -78 
Q 1113 -78 717 272 
Q 322 622 266 1200 
z
" transform="scale(0.015625)"/>
       </defs>
       <use xlink:href="#ArialMT-28"/>
       <use xlink:href="#ArialMT-27" x="33.300781"/>
       <use xlink:href="#ArialMT-66" x="52.392578"/>
       <use xlink:href="#ArialMT-6c" x="80.175781"/>
       <use xlink:href="#ArialMT-65" x="102.392578"/>
       <use xlink:href="#ArialMT-78" x="158.007812"/>
       <use xlink:href="#ArialMT-69" x="208.007812"/>
       <use xlink:href="#ArialMT-62" x="230.224609"/>
       <use xlink:href="#ArialMT-6c" x="285.839844"/>
       <use xlink:href="#ArialMT-65" x="308.056641"/>
       <use xlink:href="#ArialMT-5f" x="363.671875"/>
       <use xlink:href="#ArialMT-6c" x="419.287109"/>
       <use xlink:href="#ArialMT-6f" x="441.503906"/>
       <use xlink:href="#ArialMT-61" x="497.119141"/>
       <use xlink:href="#ArialMT-64" x="552.734375"/>
       <use xlink:href="#ArialMT-27" x="608.349609"/>
       <use xlink:href="#ArialMT-2c" x="627.441406"/>
       <use xlink:href="#ArialMT-20" x="655.224609"/>
       <use xlink:href="#ArialMT-27" x="683.007812"/>
       <use xlink:href="#ArialMT-6c" x="702.099609"/>
       <use xlink:href="#ArialMT-6f" x="724.316406"/>
       <use xlink:href="#ArialMT-61" x="779.931641"/>
       <use xlink:href="#ArialMT-64" x="835.546875"/>
       <use xlink:href="#ArialMT-5f" x="891.162109"/>
       <use xlink:href="#ArialMT-62" x="946.777344"/>
       <use xlink:href="#ArialMT-35" x="1002.392578"/>
       <use xlink:href="#ArialMT-27" x="1058.007812"/>
       <use xlink:href="#ArialMT-29" x="1077.099609"/>
      </g>
     </g>
    </g>
    <g id="xtick_13">
     <g id="line2d_25">
      <path d="M 744.042615 305.056228 
L 744.042615 25.425 
" clip-path="url(#p5f5f087ddc)" style="fill: none; stroke: #b0b0b0; stroke-width: 0.8; stroke-linecap: square"/>
     </g>
     <g id="line2d_26">
      <g>
       <use xlink:href="#mef229004cc" x="744.042615" y="305.056228" style="stroke: #000000; stroke-width: 0.8"/>
      </g>
     </g>
     <g id="text_13">
      <!-- ('flexible_load', 'load_b11') -->
      <g transform="translate(707.21163 316.51748)rotate(-320)scale(0.08 -0.08)">
       <use xlink:href="#ArialMT-28"/>
       <use xlink:href="#ArialMT-27" x="33.300781"/>
       <use xlink:href="#ArialMT-66" x="52.392578"/>
       <use xlink:href="#ArialMT-6c" x="80.175781"/>
       <use xlink:href="#ArialMT-65" x="102.392578"/>
       <use xlink:href="#ArialMT-78" x="158.007812"/>
       <use xlink:href="#ArialMT-69" x="208.007812"/>
       <use xlink:href="#ArialMT-62" x="230.224609"/>
       <use xlink:href="#ArialMT-6c" x="285.839844"/>
       <use xlink:href="#ArialMT-65" x="308.056641"/>
       <use xlink:href="#ArialMT-5f" x="363.671875"/>
       <use xlink:href="#ArialMT-6c" x="419.287109"/>
       <use xlink:href="#ArialMT-6f" x="441.503906"/>
       <use xlink:href="#ArialMT-61" x="497.119141"/>
       <use xlink:href="#ArialMT-64" x="552.734375"/>
       <use xlink:href="#ArialMT-27" x="608.349609"/>
       <use xlink:href="#ArialMT-2c" x="627.441406"/>
       <use xlink:href="#ArialMT-20" x="655.224609"/>
       <use xlink:href="#ArialMT-27" x="683.007812"/>
       <use xlink:href="#ArialMT-6c" x="702.099609"/>
       <use xlink:href="#ArialMT-6f" x="724.316406"/>
       <use xlink:href="#ArialMT-61" x="779.931641"/>
       <use xlink:href="#ArialMT-64" x="835.546875"/>
       <use xlink:href="#ArialMT-5f" x="891.162109"/>
       <use xlink:href="#ArialMT-62" x="946.777344"/>
       <use xlink:href="#ArialMT-31" x="1002.392578"/>
       <use xlink:href="#ArialMT-31" x="1050.632812"/>
       <use xlink:href="#ArialMT-27" x="1106.248047"/>
       <use xlink:href="#ArialMT-29" x="1125.339844"/>
      </g>
     </g>
    </g>
    <g id="xtick_14">
     <g id="line2d_27">
      <path d="M 797.682608 305.056228 
L 797.682608 25.425 
" clip-path="url(#p5f5f087ddc)" style="fill: none; stroke: #b0b0b0; stroke-width: 0.8; stroke-linecap: square"/>
     </g>
     <g id="line2d_28">
      <g>
       <use xlink:href="#mef229004cc" x="797.682608" y="305.056228" style="stroke: #000000; stroke-width: 0.8"/>
      </g>
     </g>
     <g id="text_14">
      <!-- ('flexible_load', 'load_b12') -->
      <g transform="translate(760.62564 316.51748)rotate(-320)scale(0.08 -0.08)">
       <use xlink:href="#ArialMT-28"/>
       <use xlink:href="#ArialMT-27" x="33.300781"/>
       <use xlink:href="#ArialMT-66" x="52.392578"/>
       <use xlink:href="#ArialMT-6c" x="80.175781"/>
       <use xlink:href="#ArialMT-65" x="102.392578"/>
       <use xlink:href="#ArialMT-78" x="158.007812"/>
       <use xlink:href="#ArialMT-69" x="208.007812"/>
       <use xlink:href="#ArialMT-62" x="230.224609"/>
       <use xlink:href="#ArialMT-6c" x="285.839844"/>
       <use xlink:href="#ArialMT-65" x="308.056641"/>
       <use xlink:href="#ArialMT-5f" x="363.671875"/>
       <use xlink:href="#ArialMT-6c" x="419.287109"/>
       <use xlink:href="#ArialMT-6f" x="441.503906"/>
       <use xlink:href="#ArialMT-61" x="497.119141"/>
       <use xlink:href="#ArialMT-64" x="552.734375"/>
       <use xlink:href="#ArialMT-27" x="608.349609"/>
       <use xlink:href="#ArialMT-2c" x="627.441406"/>
       <use xlink:href="#ArialMT-20" x="655.224609"/>
       <use xlink:href="#ArialMT-27" x="683.007812"/>
       <use xlink:href="#ArialMT-6c" x="702.099609"/>
       <use xlink:href="#ArialMT-6f" x="724.316406"/>
       <use xlink:href="#ArialMT-61" x="779.931641"/>
       <use xlink:href="#ArialMT-64" x="835.546875"/>
       <use xlink:href="#ArialMT-5f" x="891.162109"/>
       <use xlink:href="#ArialMT-62" x="946.777344"/>
       <use xlink:href="#ArialMT-31" x="1002.392578"/>
       <use xlink:href="#ArialMT-32" x="1058.007812"/>
       <use xlink:href="#ArialMT-27" x="1113.623047"/>
       <use xlink:href="#ArialMT-29" x="1132.714844"/>
      </g>
     </g>
    </g>
    <g id="text_15">
     <!-- DER name -->
     <g transform="translate(424.570313 419.2125)scale(0.1 -0.1)">
      <defs>
       <path id="ArialMT-44" d="M 494 0 
L 494 4581 
L 2072 4581 
Q 2606 4581 2888 4516 
Q 3281 4425 3559 4188 
Q 3922 3881 4101 3404 
Q 4281 2928 4281 2316 
Q 4281 1794 4159 1391 
Q 4038 988 3847 723 
Q 3656 459 3429 307 
Q 3203 156 2883 78 
Q 2563 0 2147 0 
L 494 0 
z
M 1100 541 
L 2078 541 
Q 2531 541 2789 625 
Q 3047 709 3200 863 
Q 3416 1078 3536 1442 
Q 3656 1806 3656 2325 
Q 3656 3044 3420 3430 
Q 3184 3816 2847 3947 
Q 2603 4041 2063 4041 
L 1100 4041 
L 1100 541 
z
" transform="scale(0.015625)"/>
       <path id="ArialMT-45" d="M 506 0 
L 506 4581 
L 3819 4581 
L 3819 4041 
L 1113 4041 
L 1113 2638 
L 3647 2638 
L 3647 2100 
L 1113 2100 
L 1113 541 
L 3925 541 
L 3925 0 
L 506 0 
z
" transform="scale(0.015625)"/>
       <path id="ArialMT-52" d="M 503 0 
L 503 4581 
L 2534 4581 
Q 3147 4581 3465 4457 
Q 3784 4334 3975 4021 
Q 4166 3709 4166 3331 
Q 4166 2844 3850 2509 
Q 3534 2175 2875 2084 
Q 3116 1969 3241 1856 
Q 3506 1613 3744 1247 
L 4541 0 
L 3778 0 
L 3172 953 
Q 2906 1366 2734 1584 
Q 2563 1803 2427 1890 
Q 2291 1978 2150 2013 
Q 2047 2034 1813 2034 
L 1109 2034 
L 1109 0 
L 503 0 
z
M 1109 2559 
L 2413 2559 
Q 2828 2559 3062 2645 
Q 3297 2731 3419 2920 
Q 3541 3109 3541 3331 
Q 3541 3656 3305 3865 
Q 3069 4075 2559 4075 
L 1109 4075 
L 1109 2559 
z
" transform="scale(0.015625)"/>
       <path id="ArialMT-6d" d="M 422 0 
L 422 3319 
L 925 3319 
L 925 2853 
Q 1081 3097 1340 3245 
Q 1600 3394 1931 3394 
Q 2300 3394 2536 3241 
Q 2772 3088 2869 2813 
Q 3263 3394 3894 3394 
Q 4388 3394 4653 3120 
Q 4919 2847 4919 2278 
L 4919 0 
L 4359 0 
L 4359 2091 
Q 4359 2428 4304 2576 
Q 4250 2725 4106 2815 
Q 3963 2906 3769 2906 
Q 3419 2906 3187 2673 
Q 2956 2441 2956 1928 
L 2956 0 
L 2394 0 
L 2394 2156 
Q 2394 2531 2256 2718 
Q 2119 2906 1806 2906 
Q 1569 2906 1367 2781 
Q 1166 2656 1075 2415 
Q 984 2175 984 1722 
L 984 0 
L 422 0 
z
" transform="scale(0.015625)"/>
      </defs>
      <use xlink:href="#ArialMT-44"/>
      <use xlink:href="#ArialMT-45" x="72.216797"/>
      <use xlink:href="#ArialMT-52" x="138.916016"/>
      <use xlink:href="#ArialMT-20" x="211.132812"/>
      <use xlink:href="#ArialMT-6e" x="238.916016"/>
      <use xlink:href="#ArialMT-61" x="294.53125"/>
      <use xlink:href="#ArialMT-6d" x="350.146484"/>
      <use xlink:href="#ArialMT-65" x="433.447266"/>
     </g>
    </g>
   </g>
   <g id="matplotlib.axis_2">
    <g id="ytick_1">
     <g id="line2d_29">
      <path d="M 44.845313 305.056228 
L 853.2 305.056228 
" clip-path="url(#p5f5f087ddc)" style="fill: none; stroke: #b0b0b0; stroke-width: 0.8; stroke-linecap: square"/>
     </g>
     <g id="line2d_30">
      <defs>
       <path id="m471c93c90b" d="M 0 0 
L -3.5 0 
" style="stroke: #000000; stroke-width: 0.8"/>
      </defs>
      <g>
       <use xlink:href="#m471c93c90b" x="44.845313" y="305.056228" style="stroke: #000000; stroke-width: 0.8"/>
      </g>
     </g>
     <g id="text_16">
      <!-- 0.0 -->
      <g transform="translate(23.945313 308.635135)scale(0.1 -0.1)">
       <defs>
        <path id="ArialMT-2e" d="M 581 0 
L 581 641 
L 1222 641 
L 1222 0 
L 581 0 
z
" transform="scale(0.015625)"/>
       </defs>
       <use xlink:href="#ArialMT-30"/>
       <use xlink:href="#ArialMT-2e" x="55.615234"/>
       <use xlink:href="#ArialMT-30" x="83.398438"/>
      </g>
     </g>
    </g>
    <g id="ytick_2">
     <g id="line2d_31">
      <path d="M 44.845313 251.793137 
L 853.2 251.793137 
" clip-path="url(#p5f5f087ddc)" style="fill: none; stroke: #b0b0b0; stroke-width: 0.8; stroke-linecap: square"/>
     </g>
     <g id="line2d_32">
      <g>
       <use xlink:href="#m471c93c90b" x="44.845313" y="251.793137" style="stroke: #000000; stroke-width: 0.8"/>
      </g>
     </g>
     <g id="text_17">
      <!-- 0.2 -->
      <g transform="translate(23.945313 255.372044)scale(0.1 -0.1)">
       <use xlink:href="#ArialMT-30"/>
       <use xlink:href="#ArialMT-2e" x="55.615234"/>
       <use xlink:href="#ArialMT-32" x="83.398438"/>
      </g>
     </g>
    </g>
    <g id="ytick_3">
     <g id="line2d_33">
      <path d="M 44.845313 198.530046 
L 853.2 198.530046 
" clip-path="url(#p5f5f087ddc)" style="fill: none; stroke: #b0b0b0; stroke-width: 0.8; stroke-linecap: square"/>
     </g>
     <g id="line2d_34">
      <g>
       <use xlink:href="#m471c93c90b" x="44.845313" y="198.530046" style="stroke: #000000; stroke-width: 0.8"/>
      </g>
     </g>
     <g id="text_18">
      <!-- 0.4 -->
      <g transform="translate(23.945313 202.108952)scale(0.1 -0.1)">
       <use xlink:href="#ArialMT-30"/>
       <use xlink:href="#ArialMT-2e" x="55.615234"/>
       <use xlink:href="#ArialMT-34" x="83.398438"/>
      </g>
     </g>
    </g>
    <g id="ytick_4">
     <g id="line2d_35">
      <path d="M 44.845313 145.266955 
L 853.2 145.266955 
" clip-path="url(#p5f5f087ddc)" style="fill: none; stroke: #b0b0b0; stroke-width: 0.8; stroke-linecap: square"/>
     </g>
     <g id="line2d_36">
      <g>
       <use xlink:href="#m471c93c90b" x="44.845313" y="145.266955" style="stroke: #000000; stroke-width: 0.8"/>
      </g>
     </g>
     <g id="text_19">
      <!-- 0.6 -->
      <g transform="translate(23.945313 148.845861)scale(0.1 -0.1)">
       <defs>
        <path id="ArialMT-36" d="M 3184 3459 
L 2625 3416 
Q 2550 3747 2413 3897 
Q 2184 4138 1850 4138 
Q 1581 4138 1378 3988 
Q 1113 3794 959 3422 
Q 806 3050 800 2363 
Q 1003 2672 1297 2822 
Q 1591 2972 1913 2972 
Q 2475 2972 2870 2558 
Q 3266 2144 3266 1488 
Q 3266 1056 3080 686 
Q 2894 316 2569 119 
Q 2244 -78 1831 -78 
Q 1128 -78 684 439 
Q 241 956 241 2144 
Q 241 3472 731 4075 
Q 1159 4600 1884 4600 
Q 2425 4600 2770 4297 
Q 3116 3994 3184 3459 
z
M 888 1484 
Q 888 1194 1011 928 
Q 1134 663 1356 523 
Q 1578 384 1822 384 
Q 2178 384 2434 671 
Q 2691 959 2691 1453 
Q 2691 1928 2437 2201 
Q 2184 2475 1800 2475 
Q 1419 2475 1153 2201 
Q 888 1928 888 1484 
z
" transform="scale(0.015625)"/>
       </defs>
       <use xlink:href="#ArialMT-30"/>
       <use xlink:href="#ArialMT-2e" x="55.615234"/>
       <use xlink:href="#ArialMT-36" x="83.398438"/>
      </g>
     </g>
    </g>
    <g id="ytick_5">
     <g id="line2d_37">
      <path d="M 44.845313 92.003864 
L 853.2 92.003864 
" clip-path="url(#p5f5f087ddc)" style="fill: none; stroke: #b0b0b0; stroke-width: 0.8; stroke-linecap: square"/>
     </g>
     <g id="line2d_38">
      <g>
       <use xlink:href="#m471c93c90b" x="44.845313" y="92.003864" style="stroke: #000000; stroke-width: 0.8"/>
      </g>
     </g>
     <g id="text_20">
      <!-- 0.8 -->
      <g transform="translate(23.945313 95.58277)scale(0.1 -0.1)">
       <use xlink:href="#ArialMT-30"/>
       <use xlink:href="#ArialMT-2e" x="55.615234"/>
       <use xlink:href="#ArialMT-38" x="83.398438"/>
      </g>
     </g>
    </g>
    <g id="ytick_6">
     <g id="line2d_39">
      <path d="M 44.845313 38.740773 
L 853.2 38.740773 
" clip-path="url(#p5f5f087ddc)" style="fill: none; stroke: #b0b0b0; stroke-width: 0.8; stroke-linecap: square"/>
     </g>
     <g id="line2d_40">
      <g>
       <use xlink:href="#m471c93c90b" x="44.845313" y="38.740773" style="stroke: #000000; stroke-width: 0.8"/>
      </g>
     </g>
     <g id="text_21">
      <!-- 1.0 -->
      <g transform="translate(23.945313 42.319679)scale(0.1 -0.1)">
       <use xlink:href="#ArialMT-31"/>
       <use xlink:href="#ArialMT-2e" x="55.615234"/>
       <use xlink:href="#ArialMT-30" x="83.398438"/>
      </g>
     </g>
    </g>
    <g id="text_22">
     <!-- Power dispatch [p.u] -->
     <g transform="translate(17.957813 210.540614)rotate(-90)scale(0.1 -0.1)">
      <defs>
       <path id="ArialMT-50" d="M 494 0 
L 494 4581 
L 2222 4581 
Q 2678 4581 2919 4538 
Q 3256 4481 3484 4323 
Q 3713 4166 3852 3881 
Q 3991 3597 3991 3256 
Q 3991 2672 3619 2267 
Q 3247 1863 2275 1863 
L 1100 1863 
L 1100 0 
L 494 0 
z
M 1100 2403 
L 2284 2403 
Q 2872 2403 3119 2622 
Q 3366 2841 3366 3238 
Q 3366 3525 3220 3729 
Q 3075 3934 2838 4000 
Q 2684 4041 2272 4041 
L 1100 4041 
L 1100 2403 
z
" transform="scale(0.015625)"/>
       <path id="ArialMT-77" d="M 1034 0 
L 19 3319 
L 600 3319 
L 1128 1403 
L 1325 691 
Q 1338 744 1497 1375 
L 2025 3319 
L 2603 3319 
L 3100 1394 
L 3266 759 
L 3456 1400 
L 4025 3319 
L 4572 3319 
L 3534 0 
L 2950 0 
L 2422 1988 
L 2294 2553 
L 1622 0 
L 1034 0 
z
" transform="scale(0.015625)"/>
       <path id="ArialMT-68" d="M 422 0 
L 422 4581 
L 984 4581 
L 984 2938 
Q 1378 3394 1978 3394 
Q 2347 3394 2619 3248 
Q 2891 3103 3008 2847 
Q 3125 2591 3125 2103 
L 3125 0 
L 2563 0 
L 2563 2103 
Q 2563 2525 2380 2717 
Q 2197 2909 1863 2909 
Q 1613 2909 1392 2779 
Q 1172 2650 1078 2428 
Q 984 2206 984 1816 
L 984 0 
L 422 0 
z
" transform="scale(0.015625)"/>
       <path id="ArialMT-5b" d="M 434 -1272 
L 434 4581 
L 1675 4581 
L 1675 4116 
L 997 4116 
L 997 -806 
L 1675 -806 
L 1675 -1272 
L 434 -1272 
z
" transform="scale(0.015625)"/>
       <path id="ArialMT-75" d="M 2597 0 
L 2597 488 
Q 2209 -75 1544 -75 
Q 1250 -75 995 37 
Q 741 150 617 320 
Q 494 491 444 738 
Q 409 903 409 1263 
L 409 3319 
L 972 3319 
L 972 1478 
Q 972 1038 1006 884 
Q 1059 663 1231 536 
Q 1403 409 1656 409 
Q 1909 409 2131 539 
Q 2353 669 2445 892 
Q 2538 1116 2538 1541 
L 2538 3319 
L 3100 3319 
L 3100 0 
L 2597 0 
z
" transform="scale(0.015625)"/>
       <path id="ArialMT-5d" d="M 1363 -1272 
L 122 -1272 
L 122 -806 
L 800 -806 
L 800 4116 
L 122 4116 
L 122 4581 
L 1363 4581 
L 1363 -1272 
z
" transform="scale(0.015625)"/>
      </defs>
      <use xlink:href="#ArialMT-50"/>
      <use xlink:href="#ArialMT-6f" x="66.699219"/>
      <use xlink:href="#ArialMT-77" x="122.314453"/>
      <use xlink:href="#ArialMT-65" x="194.53125"/>
      <use xlink:href="#ArialMT-72" x="250.146484"/>
      <use xlink:href="#ArialMT-20" x="283.447266"/>
      <use xlink:href="#ArialMT-64" x="311.230469"/>
      <use xlink:href="#ArialMT-69" x="366.845703"/>
      <use xlink:href="#ArialMT-73" x="389.0625"/>
      <use xlink:href="#ArialMT-70" x="439.0625"/>
      <use xlink:href="#ArialMT-61" x="494.677734"/>
      <use xlink:href="#ArialMT-74" x="550.292969"/>
      <use xlink:href="#ArialMT-63" x="578.076172"/>
      <use xlink:href="#ArialMT-68" x="628.076172"/>
      <use xlink:href="#ArialMT-20" x="683.691406"/>
      <use xlink:href="#ArialMT-5b" x="711.474609"/>
      <use xlink:href="#ArialMT-70" x="739.257812"/>
      <use xlink:href="#ArialMT-2e" x="794.873047"/>
      <use xlink:href="#ArialMT-75" x="822.65625"/>
      <use xlink:href="#ArialMT-5d" x="878.271484"/>
     </g>
    </g>
   </g>
   <g id="patch_3">
    <path d="M 100.362705 305.056228 
L 119.136702 305.056228 
L 119.136702 305.056228 
L 100.362705 305.056228 
z
" clip-path="url(#p5f5f087ddc)" style="fill: #0000ff"/>
   </g>
   <g id="patch_4">
    <path d="M 154.002697 305.056228 
L 172.776695 305.056228 
L 172.776695 305.056228 
L 154.002697 305.056228 
z
" clip-path="url(#p5f5f087ddc)" style="fill: #0000ff"/>
   </g>
   <g id="patch_5">
    <path d="M 207.64269 305.056228 
L 226.416687 305.056228 
L 226.416687 305.056228 
L 207.64269 305.056228 
z
" clip-path="url(#p5f5f087ddc)" style="fill: #0000ff"/>
   </g>
   <g id="patch_6">
    <path d="M 261.282682 305.056228 
L 280.05668 305.056228 
L 280.05668 305.056228 
L 261.282682 305.056228 
z
" clip-path="url(#p5f5f087ddc)" style="fill: #0000ff"/>
   </g>
   <g id="patch_7">
    <path d="M 314.922675 305.056228 
L 333.696672 305.056228 
L 333.696672 156.914087 
L 314.922675 156.914087 
z
" clip-path="url(#p5f5f087ddc)" style="fill: #0000ff"/>
   </g>
   <g id="patch_8">
    <path d="M 368.562667 305.056228 
L 387.336665 305.056228 
L 387.336665 38.740773 
L 368.562667 38.740773 
z
" clip-path="url(#p5f5f087ddc)" style="fill: #0000ff"/>
   </g>
   <g id="patch_9">
    <path d="M 422.20266 305.056228 
L 440.976657 305.056228 
L 440.976657 255.731943 
L 422.20266 255.731943 
z
" clip-path="url(#p5f5f087ddc)" style="fill: #0000ff"/>
   </g>
   <g id="patch_10">
    <path d="M 475.842653 305.056228 
L 494.61665 305.056228 
L 494.61665 255.731943 
L 475.842653 255.731943 
z
" clip-path="url(#p5f5f087ddc)" style="fill: #0000ff"/>
   </g>
   <g id="patch_11">
    <path d="M 529.482645 305.056228 
L 548.256642 305.056228 
L 548.256642 255.731943 
L 529.482645 255.731943 
z
" clip-path="url(#p5f5f087ddc)" style="fill: #0000ff"/>
   </g>
   <g id="patch_12">
    <path d="M 583.122638 305.056228 
L 601.896635 305.056228 
L 601.896635 255.731943 
L 583.122638 255.731943 
z
" clip-path="url(#p5f5f087ddc)" style="fill: #0000ff"/>
   </g>
   <g id="patch_13">
    <path d="M 636.76263 305.056228 
L 655.536628 305.056228 
L 655.536628 255.731943 
L 636.76263 255.731943 
z
" clip-path="url(#p5f5f087ddc)" style="fill: #0000ff"/>
   </g>
   <g id="patch_14">
    <path d="M 690.402623 305.056228 
L 709.17662 305.056228 
L 709.17662 255.731943 
L 690.402623 255.731943 
z
" clip-path="url(#p5f5f087ddc)" style="fill: #0000ff"/>
   </g>
   <g id="patch_15">
    <path d="M 744.042615 305.056228 
L 762.816613 305.056228 
L 762.816613 38.740773 
L 744.042615 38.740773 
z
" clip-path="url(#p5f5f087ddc)" style="fill: #0000ff"/>
   </g>
   <g id="patch_16">
    <path d="M 797.682608 305.056228 
L 816.456605 305.056228 
L 816.456605 38.740773 
L 797.682608 38.740773 
z
" clip-path="url(#p5f5f087ddc)" style="fill: #0000ff"/>
   </g>
   <g id="patch_17">
    <path d="M 81.588707 305.056228 
L 100.362705 305.056228 
L 100.362705 305.056228 
L 81.588707 305.056228 
z
" clip-path="url(#p5f5f087ddc)" style="fill: #ff0000"/>
   </g>
   <g id="patch_18">
    <path d="M 135.2287 305.056228 
L 154.002697 305.056228 
L 154.002697 305.056228 
L 135.2287 305.056228 
z
" clip-path="url(#p5f5f087ddc)" style="fill: #ff0000"/>
   </g>
   <g id="patch_19">
    <path d="M 188.868692 305.056228 
L 207.64269 305.056228 
L 207.64269 305.056228 
L 188.868692 305.056228 
z
" clip-path="url(#p5f5f087ddc)" style="fill: #ff0000"/>
   </g>
   <g id="patch_20">
    <path d="M 242.508685 305.056228 
L 261.282682 305.056228 
L 261.282682 64.786424 
L 242.508685 64.786424 
z
" clip-path="url(#p5f5f087ddc)" style="fill: #ff0000"/>
   </g>
   <g id="patch_21">
    <path d="M 296.148678 305.056228 
L 314.922675 305.056228 
L 314.922675 206.691662 
L 296.148678 206.691662 
z
" clip-path="url(#p5f5f087ddc)" style="fill: #ff0000"/>
   </g>
   <g id="patch_22">
    <path d="M 349.78867 305.056228 
L 368.562667 305.056228 
L 368.562667 38.740773 
L 349.78867 38.740773 
z
" clip-path="url(#p5f5f087ddc)" style="fill: #ff0000"/>
   </g>
   <g id="patch_23">
    <path d="M 403.428663 305.056228 
L 422.20266 305.056228 
L 422.20266 255.731943 
L 403.428663 255.731943 
z
" clip-path="url(#p5f5f087ddc)" style="fill: #ff0000"/>
   </g>
   <g id="patch_24">
    <path d="M 457.068655 305.056228 
L 475.842653 305.056228 
L 475.842653 255.731943 
L 457.068655 255.731943 
z
" clip-path="url(#p5f5f087ddc)" style="fill: #ff0000"/>
   </g>
   <g id="patch_25">
    <path d="M 510.708648 305.056228 
L 529.482645 305.056228 
L 529.482645 255.731943 
L 510.708648 255.731943 
z
" clip-path="url(#p5f5f087ddc)" style="fill: #ff0000"/>
   </g>
   <g id="patch_26">
    <path d="M 564.34864 305.056228 
L 583.122638 305.056228 
L 583.122638 255.731943 
L 564.34864 255.731943 
z
" clip-path="url(#p5f5f087ddc)" style="fill: #ff0000"/>
   </g>
   <g id="patch_27">
    <path d="M 617.988633 305.056228 
L 636.76263 305.056228 
L 636.76263 255.731943 
L 617.988633 255.731943 
z
" clip-path="url(#p5f5f087ddc)" style="fill: #ff0000"/>
   </g>
   <g id="patch_28">
    <path d="M 671.628625 305.056228 
L 690.402623 305.056228 
L 690.402623 255.731943 
L 671.628625 255.731943 
z
" clip-path="url(#p5f5f087ddc)" style="fill: #ff0000"/>
   </g>
   <g id="patch_29">
    <path d="M 725.268618 305.056228 
L 744.042615 305.056228 
L 744.042615 38.740773 
L 725.268618 38.740773 
z
" clip-path="url(#p5f5f087ddc)" style="fill: #ff0000"/>
   </g>
   <g id="patch_30">
    <path d="M 778.90861 305.056228 
L 797.682608 305.056228 
L 797.682608 38.740773 
L 778.90861 38.740773 
z
" clip-path="url(#p5f5f087ddc)" style="fill: #ff0000"/>
   </g>
   <g id="patch_31">
    <path d="M 44.845313 305.056228 
L 44.845313 25.425 
" style="fill: none; stroke: #000000; stroke-width: 0.8; stroke-linejoin: miter; stroke-linecap: square"/>
   </g>
   <g id="patch_32">
    <path d="M 853.2 305.056228 
L 853.2 25.425 
" style="fill: none; stroke: #000000; stroke-width: 0.8; stroke-linejoin: miter; stroke-linecap: square"/>
   </g>
   <g id="patch_33">
    <path d="M 44.845313 305.056228 
L 853.2 305.056228 
" style="fill: none; stroke: #000000; stroke-width: 0.8; stroke-linejoin: miter; stroke-linecap: square"/>
   </g>
   <g id="patch_34">
    <path d="M 44.845313 25.425 
L 853.2 25.425 
" style="fill: none; stroke: #000000; stroke-width: 0.8; stroke-linejoin: miter; stroke-linecap: square"/>
   </g>
   <g id="text_23">
    <!-- Flexible DER's active power dispatch at 14 PM -->
    <g transform="translate(324.830156 19.425)scale(0.12 -0.12)">
     <defs>
      <path id="ArialMT-46" d="M 525 0 
L 525 4581 
L 3616 4581 
L 3616 4041 
L 1131 4041 
L 1131 2622 
L 3281 2622 
L 3281 2081 
L 1131 2081 
L 1131 0 
L 525 0 
z
" transform="scale(0.015625)"/>
      <path id="ArialMT-4d" d="M 475 0 
L 475 4581 
L 1388 4581 
L 2472 1338 
Q 2622 884 2691 659 
Q 2769 909 2934 1394 
L 4031 4581 
L 4847 4581 
L 4847 0 
L 4263 0 
L 4263 3834 
L 2931 0 
L 2384 0 
L 1059 3900 
L 1059 0 
L 475 0 
z
" transform="scale(0.015625)"/>
     </defs>
     <use xlink:href="#ArialMT-46"/>
     <use xlink:href="#ArialMT-6c" x="61.083984"/>
     <use xlink:href="#ArialMT-65" x="83.300781"/>
     <use xlink:href="#ArialMT-78" x="138.916016"/>
     <use xlink:href="#ArialMT-69" x="188.916016"/>
     <use xlink:href="#ArialMT-62" x="211.132812"/>
     <use xlink:href="#ArialMT-6c" x="266.748047"/>
     <use xlink:href="#ArialMT-65" x="288.964844"/>
     <use xlink:href="#ArialMT-20" x="344.580078"/>
     <use xlink:href="#ArialMT-44" x="372.363281"/>
     <use xlink:href="#ArialMT-45" x="444.580078"/>
     <use xlink:href="#ArialMT-52" x="511.279297"/>
     <use xlink:href="#ArialMT-27" x="583.496094"/>
     <use xlink:href="#ArialMT-73" x="602.587891"/>
     <use xlink:href="#ArialMT-20" x="652.587891"/>
     <use xlink:href="#ArialMT-61" x="680.371094"/>
     <use xlink:href="#ArialMT-63" x="735.986328"/>
     <use xlink:href="#ArialMT-74" x="785.986328"/>
     <use xlink:href="#ArialMT-69" x="813.769531"/>
     <use xlink:href="#ArialMT-76" x="835.986328"/>
     <use xlink:href="#ArialMT-65" x="885.986328"/>
     <use xlink:href="#ArialMT-20" x="941.601562"/>
     <use xlink:href="#ArialMT-70" x="969.384766"/>
     <use xlink:href="#ArialMT-6f" x="1025"/>
     <use xlink:href="#ArialMT-77" x="1080.615234"/>
     <use xlink:href="#ArialMT-65" x="1152.832031"/>
     <use xlink:href="#ArialMT-72" x="1208.447266"/>
     <use xlink:href="#ArialMT-20" x="1241.748047"/>
     <use xlink:href="#ArialMT-64" x="1269.53125"/>
     <use xlink:href="#ArialMT-69" x="1325.146484"/>
     <use xlink:href="#ArialMT-73" x="1347.363281"/>
     <use xlink:href="#ArialMT-70" x="1397.363281"/>
     <use xlink:href="#ArialMT-61" x="1452.978516"/>
     <use xlink:href="#ArialMT-74" x="1508.59375"/>
     <use xlink:href="#ArialMT-63" x="1536.376953"/>
     <use xlink:href="#ArialMT-68" x="1586.376953"/>
     <use xlink:href="#ArialMT-20" x="1641.992188"/>
     <use xlink:href="#ArialMT-61" x="1669.775391"/>
     <use xlink:href="#ArialMT-74" x="1725.390625"/>
     <use xlink:href="#ArialMT-20" x="1753.173828"/>
     <use xlink:href="#ArialMT-31" x="1780.957031"/>
     <use xlink:href="#ArialMT-34" x="1836.572266"/>
     <use xlink:href="#ArialMT-20" x="1892.1875"/>
     <use xlink:href="#ArialMT-50" x="1919.970703"/>
     <use xlink:href="#ArialMT-4d" x="1986.669922"/>
    </g>
   </g>
   <g id="legend_1">
    <g id="patch_35">
     <path d="M 51.845313 61.95 
L 143.879688 61.95 
Q 145.879688 61.95 145.879688 59.95 
L 145.879688 32.425 
Q 145.879688 30.425 143.879688 30.425 
L 51.845313 30.425 
Q 49.845313 30.425 49.845313 32.425 
L 49.845313 59.95 
Q 49.845313 61.95 51.845313 61.95 
z
" style="fill: #ffffff; opacity: 0.8; stroke: #cccccc; stroke-linejoin: miter"/>
    </g>
    <g id="patch_36">
     <path d="M 53.845313 41.582812 
L 73.845313 41.582812 
L 73.845313 34.582812 
L 53.845313 34.582812 
z
" style="fill: #0000ff"/>
    </g>
    <g id="text_24">
     <!-- non_strategic -->
     <g transform="translate(81.845313 41.582812)scale(0.1 -0.1)">
      <use xlink:href="#ArialMT-6e"/>
      <use xlink:href="#ArialMT-6f" x="55.615234"/>
      <use xlink:href="#ArialMT-6e" x="111.230469"/>
      <use xlink:href="#ArialMT-5f" x="166.845703"/>
      <use xlink:href="#ArialMT-73" x="222.460938"/>
      <use xlink:href="#ArialMT-74" x="272.460938"/>
      <use xlink:href="#ArialMT-72" x="300.244141"/>
      <use xlink:href="#ArialMT-61" x="333.544922"/>
      <use xlink:href="#ArialMT-74" x="389.160156"/>
      <use xlink:href="#ArialMT-65" x="416.943359"/>
      <use xlink:href="#ArialMT-67" x="472.558594"/>
      <use xlink:href="#ArialMT-69" x="528.173828"/>
      <use xlink:href="#ArialMT-63" x="550.390625"/>
     </g>
    </g>
    <g id="patch_37">
     <path d="M 53.845313 55.845312 
L 73.845313 55.845312 
L 73.845313 48.845312 
L 53.845313 48.845312 
z
" style="fill: #ff0000"/>
    </g>
    <g id="text_25">
     <!-- strategic -->
     <g transform="translate(81.845313 55.845312)scale(0.1 -0.1)">
      <use xlink:href="#ArialMT-73"/>
      <use xlink:href="#ArialMT-74" x="50"/>
      <use xlink:href="#ArialMT-72" x="77.783203"/>
      <use xlink:href="#ArialMT-61" x="111.083984"/>
      <use xlink:href="#ArialMT-74" x="166.699219"/>
      <use xlink:href="#ArialMT-65" x="194.482422"/>
      <use xlink:href="#ArialMT-67" x="250.097656"/>
      <use xlink:href="#ArialMT-69" x="305.712891"/>
      <use xlink:href="#ArialMT-63" x="327.929688"/>
     </g>
    </g>
   </g>
  </g>
 </g>
 <defs>
  <clipPath id="p5f5f087ddc">
   <rect x="44.845313" y="25.425" width="808.354688" height="279.631228"/>
  </clipPath>
 </defs>
</svg>
